# xmcd CD database file
#
# Track frame offsets:
#	150
#	20860
#	39191
#	56691
#	80793
#	99504
#	119553
#	138104
#	158515
#	182264
#	204977
#	224225
#
# Disc length: 3232 seconds
#
# Revision: 0
# Processed by: cddbd v1.5.2PL0 Copyright (c) Steve Scherf et al.
# Submitted via: CDex 1.51
#
DISCID=a40c9e0c
DTITLE=Cliff deMarks - Prime
DYEAR=2012
DGENRE=Jazz
TTITLE0=Walking the G
TTITLE1=All That Matters
TTITLE2=Late Night Live
TTITLE3=Millie's Song
TTITLE4=Dick and Jane at the Matinee
TTITLE5=Weather Patrol
TTITLE6=A of It
TTITLE7=Little Fire
TTITLE8=Prime
TTITLE9=Saffron Honey
TTITLE10=Midnight in the Quarters
TTITLE11=Traveling Light
EXTD=YEAR: 2012
EXTT0=
EXTT1=
EXTT2=
EXTT3=
EXTT4=
EXTT5=
EXTT6=
EXTT7=
EXTT8=
EXTT9=
EXTT10=
EXTT11=
PLAYORDER=
